<mxfile host="app.diagrams.net" agent="Mozilla/5.0 (X11; Linux x86_64; rv:133.0) Gecko/20100101 Firefox/133.0" version="25.0.1">
  <diagram name="Page-1" id="4NHl540B_YYMlPFxt3do">
    <mxGraphModel dx="989" dy="545" grid="1" gridSize="10" guides="1" tooltips="1" connect="1" arrows="1" fold="1" page="1" pageScale="1" pageWidth="850" pageHeight="1100" math="0" shadow="0">
      <root>
        <mxCell id="0" />
        <mxCell id="1" parent="0" />
        <mxCell id="tl-7FCypKeyMNdoWpPQX-10" value="" style="rounded=0;whiteSpace=wrap;html=1;" vertex="1" parent="1">
          <mxGeometry x="120" y="80" width="480" height="360" as="geometry" />
        </mxCell>
        <mxCell id="tl-7FCypKeyMNdoWpPQX-5" style="edgeStyle=orthogonalEdgeStyle;rounded=0;orthogonalLoop=1;jettySize=auto;html=1;entryX=0;entryY=0.5;entryDx=0;entryDy=0;" edge="1" parent="1" source="tl-7FCypKeyMNdoWpPQX-1" target="tl-7FCypKeyMNdoWpPQX-2">
          <mxGeometry relative="1" as="geometry" />
        </mxCell>
        <mxCell id="tl-7FCypKeyMNdoWpPQX-6" style="edgeStyle=orthogonalEdgeStyle;rounded=0;orthogonalLoop=1;jettySize=auto;html=1;entryX=0;entryY=0.5;entryDx=0;entryDy=0;" edge="1" parent="1" source="tl-7FCypKeyMNdoWpPQX-1" target="tl-7FCypKeyMNdoWpPQX-4">
          <mxGeometry relative="1" as="geometry" />
        </mxCell>
        <mxCell id="tl-7FCypKeyMNdoWpPQX-1" value="nginx" style="rounded=0;whiteSpace=wrap;html=1;" vertex="1" parent="1">
          <mxGeometry x="161" y="240" width="80" height="40" as="geometry" />
        </mxCell>
        <mxCell id="tl-7FCypKeyMNdoWpPQX-8" style="edgeStyle=orthogonalEdgeStyle;rounded=0;orthogonalLoop=1;jettySize=auto;html=1;entryX=0;entryY=0.5;entryDx=0;entryDy=0;" edge="1" parent="1" source="tl-7FCypKeyMNdoWpPQX-2" target="tl-7FCypKeyMNdoWpPQX-7">
          <mxGeometry relative="1" as="geometry" />
        </mxCell>
        <mxCell id="tl-7FCypKeyMNdoWpPQX-2" value="lab-service-1" style="rounded=0;whiteSpace=wrap;html=1;" vertex="1" parent="1">
          <mxGeometry x="320" y="160" width="80" height="40" as="geometry" />
        </mxCell>
        <mxCell id="tl-7FCypKeyMNdoWpPQX-9" style="edgeStyle=orthogonalEdgeStyle;rounded=0;orthogonalLoop=1;jettySize=auto;html=1;entryX=0;entryY=0.5;entryDx=0;entryDy=0;" edge="1" parent="1" source="tl-7FCypKeyMNdoWpPQX-4" target="tl-7FCypKeyMNdoWpPQX-7">
          <mxGeometry relative="1" as="geometry" />
        </mxCell>
        <mxCell id="tl-7FCypKeyMNdoWpPQX-4" value="lab-service-2" style="rounded=0;whiteSpace=wrap;html=1;" vertex="1" parent="1">
          <mxGeometry x="320" y="320" width="80" height="40" as="geometry" />
        </mxCell>
        <mxCell id="tl-7FCypKeyMNdoWpPQX-7" value="postgres" style="rounded=0;whiteSpace=wrap;html=1;" vertex="1" parent="1">
          <mxGeometry x="480" y="240" width="80" height="40" as="geometry" />
        </mxCell>
        <mxCell id="tl-7FCypKeyMNdoWpPQX-11" value="docker engine" style="text;html=1;align=center;verticalAlign=middle;whiteSpace=wrap;rounded=0;" vertex="1" parent="1">
          <mxGeometry x="320" y="400" width="80" height="30" as="geometry" />
        </mxCell>
        <mxCell id="tl-7FCypKeyMNdoWpPQX-12" value="" style="endArrow=classic;html=1;rounded=0;entryX=0;entryY=0.5;entryDx=0;entryDy=0;" edge="1" parent="1" target="tl-7FCypKeyMNdoWpPQX-1">
          <mxGeometry width="50" height="50" relative="1" as="geometry">
            <mxPoint x="40" y="260" as="sourcePoint" />
            <mxPoint x="90" y="240" as="targetPoint" />
          </mxGeometry>
        </mxCell>
        <mxCell id="tl-7FCypKeyMNdoWpPQX-14" value="port:8080" style="text;html=1;align=center;verticalAlign=middle;whiteSpace=wrap;rounded=0;" vertex="1" parent="1">
          <mxGeometry x="90" y="220" width="60" height="30" as="geometry" />
        </mxCell>
      </root>
    </mxGraphModel>
  </diagram>
</mxfile>
